<svg xmlns="http://www.w3.org/2000/svg" viewBox="0 0 70 70" id="1512155506" class="svg u_1512155506" data-icon-name="ar-arrow_circle_up"> <g> <path d="M35,10.6c-13.5,0-24.4,11-24.4,24.4s11,24.4,24.4,24.4s24.4-11,24.4-24.4S48.5,10.6,35,10.6z M35,57.8
		c-12.6,0-22.8-10.2-22.8-22.8S22.4,12.2,35,12.2S57.8,22.4,57.8,35S47.6,57.8,35,57.8z"></path> 
 <path d="M35.6,19c-0.3-0.3-0.8-0.3-1.2,0l-13,13c-0.3,0.3-0.3,0.8,0,1.2c0.3,0.3,0.8,0.3,1.2,0l11.6-11.6v29.8
		c0,0.4,0.4,0.8,0.8,0.8s0.8-0.4,0.8-0.8V21.5l11.6,11.6c0.2,0.2,0.4,0.2,0.6,0.2s0.4-0.1,0.6-0.2c0.3-0.3,0.3-0.8,0-1.2L35.6,19z"></path> 
</g> 
</svg>