<?xml version="1.0" encoding="UTF-8"?>
<svg version="1.1" xmlns="http://www.w3.org/2000/svg" width="85" height="80">
<path d="M0 0 C11.55 0 23.1 0 35 0 C36 1 36 1 36.375 4 C36.97553941 8.55486044 38.47286234 12.68329089 40 17 C42.71591104 24.78638872 45.06729648 32.61988121 47.16162109 40.59350586 C48.41698144 45.27187063 50.07910532 49.54273018 52 54 C52.95634366 56.9150058 53.79513923 59.85932265 54.625 62.8125 C55.99788679 68.02307365 55.99788679 68.02307365 58 73 C58 74.98 58 76.96 58 79 C38.86 79 19.72 79 0 79 C0 52.93 0 26.86 0 0 Z " fill="#C3252B" transform="translate(0,0)"/>
<path d="M0 0 C14.19 0 28.38 0 43 0 C43 26.4 43 52.8 43 80 C40.69 80 38.38 80 36 80 C29.67380843 66.3513803 23.38311484 52.68694643 17.15213013 38.99459839 C16.52025832 37.60617558 15.88800922 36.21792439 15.25534058 34.8298645 C11.84618743 27.34812651 8.47537631 19.85109184 5.17578125 12.3203125 C4.88640182 11.660383 4.5970224 11.00045349 4.2988739 10.32052612 C2.80592022 6.89965831 1.38674677 3.46686692 0 0 Z " fill="#058D49" transform="translate(42,0)"/>
<path d="M0 0 C0.33 0 0.66 0 1 0 C1 26.4 1 52.8 1 80 C-1.31 80 -3.62 80 -6 80 C-7.65 76.37 -9.3 72.74 -11 69 C-9.515 68.505 -9.515 68.505 -8 68 C-6.25728062 70.297221 -4.60088848 72.59866729 -3 75 C-3 74.34 -3 73.68 -3 73 C-2.34 73 -1.68 73 -1 73 C-1.00785522 71.28176025 -1.00785522 71.28176025 -1.01586914 69.52880859 C-1.11253032 46.3278354 -1.02728219 23.18215269 0 0 Z " fill="#398B5C" transform="translate(84,0)"/>
<path d="M0 0 C1.32 0 2.64 0 4 0 C4 0.66 4 1.32 4 2 C19.18 2 34.36 2 50 2 C50 1.34 50 0.68 50 0 C51.32 0 52.64 0 54 0 C54.495 2.475 54.495 2.475 55 5 C36.19 5 17.38 5 -2 5 C-2 4.67 -2 4.34 -2 4 C-1.01 3.67 -0.02 3.34 1 3 C0.67 2.01 0.34 1.02 0 0 Z " fill="#AD1C1D" transform="translate(3,74)"/>
<path d="M0 0 C0.66 0.33 1.32 0.66 2 1 C1.67 2.65 1.34 4.3 1 6 C1.66 6 2.32 6 3 6 C3 6.99 3 7.98 3 9 C3.99 9.33 4.98 9.66 6 10 C6.125 13.375 6.125 13.375 6 17 C5.34 17.66 4.68 18.32 4 19 C2.82866942 16.54379149 1.66278278 14.08525083 0.5 11.625 C0.16613281 10.92632812 -0.16773438 10.22765625 -0.51171875 9.5078125 C-3 4.2265625 -3 4.2265625 -3 2 C-2.01 2 -1.02 2 0 2 C0 1.34 0 0.68 0 0 Z " fill="#3B9964" transform="translate(53,15)"/>
<path d="M0 0 C11.55 0 23.1 0 35 0 C35.495 2.475 35.495 2.475 36 5 C34.68 4.67 33.36 4.34 32 4 C32 3.01 32 2.02 32 1 C21.77 1 11.54 1 1 1 C1 4.96 1 8.92 1 13 C0.67 13 0.34 13 0 13 C0 8.71 0 4.42 0 0 Z " fill="#D45D60" transform="translate(0,0)"/>
<path d="M0 0 C2 2 2 2 2 6 C2.66 6 3.32 6 4 6 C8.59225513 15.22551253 8.59225513 15.22551253 8 21 C5.33919921 17.73010024 3.54833628 14.30618746 1.75 10.5 C1.20859375 9.3759375 0.6671875 8.251875 0.109375 7.09375 C-0.98609883 4.03876664 -1.23386263 2.92683694 0 0 Z " fill="#4F9A6F" transform="translate(61,37)"/>
<path d="M0 0 C1.98291172 3.65861176 3.34082695 7.51258112 4.6875 11.4375 C4.92533203 12.09298828 5.16316406 12.74847656 5.40820312 13.42382812 C6.74397866 17.32930673 7.26191342 20.03070869 6 24 C4.23537317 20.91190305 4 19.76687864 4 16 C3.01 15.67 2.02 15.34 1 15 C1.33 12.36 1.66 9.72 2 7 C1.01 7 0.02 7 -1 7 C-0.67 4.69 -0.34 2.38 0 0 Z " fill="#C16164" transform="translate(49,48)"/>
<path d="M0 0 C1.98 0.99 1.98 0.99 4 2 C4 2.66 4 3.32 4 4 C4.66 4 5.32 4 6 4 C7.83691257 7.78187881 8.15837626 9.94568308 7 14 C3.94998169 10.33997803 0 4.92148529 0 0 Z " fill="#51A072" transform="translate(43,2)"/>
<path d="M0 0 C0.99 0 1.98 0 3 0 C4.65956108 1.91487817 5.86788359 3.73576718 7 6 C6.01 7.32 5.02 8.64 4 10 C2.68 6.7 1.36 3.4 0 0 Z " fill="#509E72" transform="translate(73,68)"/>
<path d="M0 0 C2.5654594 2.5654594 2.54046087 4.47686668 3 8 C2.01 7.67 1.02 7.34 0 7 C0 6.34 0 5.68 0 5 C-0.99 4.67 -1.98 4.34 -3 4 C-2.67 3.01 -2.34 2.02 -2 1 C-1.34 0.67 -0.68 0.34 0 0 Z " fill="#BD4A4D" transform="translate(46,40)"/>
<path d="M0 0 C0.66 0.66 1.32 1.32 2 2 C1.625 4.625 1.625 4.625 1 7 C-0.32 6.67 -1.64 6.34 -3 6 C-3.33 4.68 -3.66 3.36 -4 2 C-2.68 1.34 -1.36 0.68 0 0 Z " fill="#269056" transform="translate(62,32)"/>
<path d="M0 0 C0.66 0.33 1.32 0.66 2 1 C2.125 4.375 2.125 4.375 2 8 C1.34 8.66 0.68 9.32 0 10 C-0.74926071 6.33694766 -1.2380014 3.57644848 0 0 Z " fill="#38965F" transform="translate(57,24)"/>
<path d="M0 0 C2 2 2 2 2 6 C2.66 6 3.32 6 4 6 C3.34 7.32 2.68 8.64 2 10 C-1.07692308 4.58461538 -1.07692308 4.58461538 -0.6875 1.625 C-0.460625 1.08875 -0.23375 0.5525 0 0 Z " fill="#61A67F" transform="translate(61,37)"/>
<path d="M0 0 C2 3 2 3 1.625 6.1875 C1.41875 7.115625 1.2125 8.04375 1 9 C-0.74627478 6.38058783 -1.38722388 4.96175123 -2 2 C-1.34 2 -0.68 2 0 2 C0 1.34 0 0.68 0 0 Z " fill="#489D6E" transform="translate(55,21)"/>
</svg>
